<?xml version="1.0" standalone="no"?>
<!DOCTYPE svg PUBLIC "-//W3C//DTD SVG 20010904//EN"
 "http://www.w3.org/TR/2001/REC-SVG-20010904/DTD/svg10.dtd">
<svg version="1.0" xmlns="http://www.w3.org/2000/svg"
 width="700.000000pt" height="700.000000pt" viewBox="0 0 700.000000 700.000000"
 preserveAspectRatio="xMidYMid meet">
<metadata>
Created by potrace 1.14, written by Peter Selinger 2001-2017
</metadata>
<g transform="translate(0.000000,700.000000) scale(0.100000,-0.100000)"
fill="#000000" stroke="none">
<path d="M894 6546 c-43 -19 -64 -53 -64 -103 0 -37 6 -49 56 -103 l57 -60
-57 -59 c-50 -53 -56 -64 -56 -101 0 -34 6 -48 34 -76 57 -57 103 -47 194 40
l42 40 48 -46 c84 -81 132 -90 188 -34 28 28 34 42 34 76 0 37 -6 48 -57 101
l-57 60 46 47 c55 57 68 80 68 125 0 67 -74 120 -136 97 -16 -6 -53 -34 -81
-63 l-53 -51 -52 51 c-46 45 -92 74 -116 73 -4 -1 -21 -7 -38 -14z"/>
<path d="M5050 6441 c-97 -32 -187 -116 -216 -204 -39 -114 -15 -240 63 -327
25 -28 69 -63 97 -78 45 -24 62 -27 146 -27 83 0 101 3 145 27 62 32 130 104
158 166 30 66 30 188 0 254 -29 63 -96 134 -158 166 -39 20 -68 26 -130 28
-44 2 -91 0 -105 -5z m143 -222 c31 -14 57 -59 57 -99 0 -23 -10 -42 -34 -66
-46 -46 -101 -48 -148 -5 -28 25 -33 36 -33 76 0 40 5 51 33 76 35 31 81 38
125 18z"/>
<path d="M2664 6146 c-40 -40 -46 -92 -14 -143 40 -66 150 -66 191 1 31 50 25
102 -15 142 -29 29 -41 34 -81 34 -40 0 -52 -5 -81 -34z"/>
<path d="M556 5460 c-37 -12 -85 -56 -102 -97 -12 -27 -14 -364 -14 -2082 0
-1428 3 -2058 11 -2078 13 -35 45 -70 84 -91 27 -16 127 -17 1113 -20 l1082
-2 0 -325 0 -325 -115 0 c-124 0 -160 -10 -189 -52 -19 -27 -21 -77 -4 -113
26 -58 -31 -55 1194 -55 l1126 0 34 34 c56 56 44 135 -26 171 -21 11 -62 15
-150 15 l-120 0 0 325 0 325 1088 2 c1216 3 1120 -3 1179 75 l28 36 3 2051 c1
1128 0 2066 -3 2084 -8 45 -68 109 -113 122 -46 12 -6063 12 -6106 0z m5024
-1795 l0 -1585 -1315 0 -1315 0 0 395 c0 284 -3 401 -12 420 -26 57 11 55
-976 55 -901 0 -910 0 -935 -20 -15 -12 -31 -38 -37 -58 -6 -22 -10 -187 -10
-414 l0 -378 -160 0 -160 0 0 1585 0 1585 2460 0 2460 0 0 -1585z m980 0 l0
-1585 -380 0 -380 0 0 1585 0 1585 380 0 380 0 0 -1585z m-3830 -1260 l0 -325
-765 0 -765 0 0 325 0 325 765 0 765 0 0 -325z m3830 -820 l0 -275 -2950 0
-2950 0 0 275 0 275 2950 0 2950 0 0 -275z m-2290 -820 l0 -325 -660 0 -660 0
0 325 0 325 660 0 660 0 0 -325z"/>
<path d="M934 5071 c-63 -39 -71 -132 -14 -183 67 -61 175 -22 187 68 13 100
-87 167 -173 115z"/>
<path d="M1263 5070 c-40 -24 -53 -48 -53 -100 0 -57 50 -110 104 -110 49 0
92 23 111 60 55 106 -60 213 -162 150z"/>
<path d="M1605 5081 c-76 -32 -90 -140 -24 -195 56 -47 147 -26 175 39 18 43
18 59 -1 99 -26 55 -93 80 -150 57z"/>
<path d="M1020 4672 c-19 -19 -30 -43 -35 -73 -3 -24 -5 -340 -3 -701 l3 -658
33 -32 32 -33 921 0 921 0 29 33 29 32 0 690 c0 513 -3 696 -12 715 -26 57 11
55 -978 55 l-912 0 -28 -28z m1710 -737 l0 -545 -765 0 -765 0 0 545 0 545
765 0 765 0 0 -545z"/>
<path d="M5284 4666 l-35 -35 3 -480 3 -481 26 -25 c50 -50 133 -42 169 17 20
32 20 47 18 506 l-3 474 -33 29 c-48 43 -102 41 -148 -5z"/>
<path d="M3318 4561 c-28 -25 -33 -36 -33 -76 0 -40 5 -51 32 -75 43 -39 74
-42 383 -38 297 3 307 6 336 75 19 43 5 93 -33 123 -25 19 -40 20 -339 20
l-314 0 -32 -29z"/>
<path d="M3364 4263 c-12 -2 -34 -18 -50 -34 -23 -24 -29 -39 -29 -75 0 -39 5
-50 33 -75 l32 -29 534 0 534 0 31 29 c26 24 31 37 31 74 0 55 -27 92 -78 107
-35 9 -990 13 -1038 3z"/>
<path d="M3529 3816 c-149 -40 -244 -163 -244 -316 0 -65 5 -85 33 -142 37
-76 82 -120 162 -157 l55 -26 599 -3 c579 -3 602 -2 667 18 84 25 156 87 196
168 24 49 28 69 28 142 0 73 -4 93 -28 142 -39 80 -111 142 -194 168 -62 19
-91 20 -647 19 -427 0 -593 -4 -627 -13z m1252 -244 c22 -24 29 -42 29 -72 0
-30 -7 -48 -29 -72 l-29 -33 -584 -3 c-569 -2 -584 -2 -616 18 -18 11 -37 32
-43 48 -21 54 6 122 56 143 11 4 282 7 603 6 l584 -2 29 -33z"/>
<path d="M3318 2811 c-28 -25 -33 -36 -33 -74 0 -54 30 -92 84 -107 49 -14
984 -13 1033 0 80 23 107 123 49 181 l-29 29 -536 0 -536 0 -32 -29z"/>
<path d="M3364 2513 c-12 -2 -34 -18 -50 -34 -23 -24 -29 -39 -29 -75 0 -39 5
-50 33 -75 l32 -29 258 0 c283 0 286 1 318 62 29 57 -1 121 -69 147 -27 10
-445 14 -493 4z"/>
</g>
</svg>
